<?xml version="1.0" encoding="UTF-8" standalone="no"?>
<!-- Created with Inkscape (http://www.inkscape.org/) -->

<svg
   width="297mm"
   height="210mm"
   viewBox="0 0 297 210"
   version="1.1"
   id="svg5"
   inkscape:version="1.1.2 (0a00cf5339, 2022-02-04)"
   sodipodi:docname="folio-logo blue.svg"
   inkscape:export-filename="/home/hans/Documents/School/ZWA/Folio/folio-logo.png"
   inkscape:export-xdpi="96"
   inkscape:export-ydpi="96"
   xmlns:inkscape="http://www.inkscape.org/namespaces/inkscape"
   xmlns:sodipodi="http://sodipodi.sourceforge.net/DTD/sodipodi-0.dtd"
   xmlns:xlink="http://www.w3.org/1999/xlink"
   xmlns="http://www.w3.org/2000/svg"
   xmlns:svg="http://www.w3.org/2000/svg">
  <sodipodi:namedview
     id="namedview7"
     pagecolor="#ffffff"
     bordercolor="#666666"
     borderopacity="1.0"
     inkscape:pageshadow="2"
     inkscape:pageopacity="0.0"
     inkscape:pagecheckerboard="0"
     inkscape:document-units="mm"
     showgrid="false"
     inkscape:zoom="1"
     inkscape:cx="593.5"
     inkscape:cy="-56"
     inkscape:window-width="1881"
     inkscape:window-height="1052"
     inkscape:window-x="1536"
     inkscape:window-y="0"
     inkscape:window-maximized="1"
     inkscape:current-layer="layer4"
     inkscape:snap-grids="true"
     inkscape:snap-to-guides="true"
     showguides="false"
     inkscape:snap-bbox="true" />
  <defs
     id="defs2">
    <linearGradient
       inkscape:collect="always"
       id="linearGradient105312">
      <stop
         style="stop-color:#2566b7;stop-opacity:1;"
         offset="0"
         id="stop105308" />
      <stop
         style="stop-color:#2566b7;stop-opacity:0;"
         offset="1"
         id="stop105310" />
    </linearGradient>
    <rect
       x="5.8500792"
       y="65.308717"
       width="1113.8291"
       height="434.00916"
       id="rect100584" />
    <rect
       x="53.761808"
       y="45.091742"
       width="1042.9605"
       height="474.4213"
       id="rect66280" />
    <rect
       x="48.558351"
       y="71.209906"
       width="1052.0907"
       height="575.94355"
       id="rect20644" />
    <rect
       x="99.529861"
       y="136.67612"
       width="945.60602"
       height="261.07878"
       id="rect12146" />
    <rect
       x="21.975794"
       y="28.205069"
       width="763.1601"
       height="234.72716"
       id="rect5069" />
    <linearGradient
       inkscape:collect="always"
       xlink:href="#linearGradient105312"
       id="linearGradient105314"
       x1="38.954704"
       y1="279.50547"
       x2="904.34344"
       y2="279.50547"
       gradientUnits="userSpaceOnUse" />
  </defs>
  <g
     inkscape:label="Layer 1"
     inkscape:groupmode="layer"
     id="layer1"
     style="display:inline">
    <text
       xml:space="preserve"
       transform="scale(0.26458333)"
       id="text5067"
       style="font-style:normal;font-variant:normal;font-weight:normal;font-stretch:normal;font-size:192px;line-height:1.75;font-family:'Ubuntu Mono';-inkscape-font-specification:'Ubuntu Mono';white-space:pre;shape-inside:url(#rect5069);fill:#000000;fill-opacity:1;stroke:none" />
    <text
       xml:space="preserve"
       transform="scale(0.26458333)"
       id="text12144"
       style="font-style:normal;font-variant:normal;font-weight:normal;font-stretch:normal;font-size:192px;line-height:1.75;font-family:'Ubuntu Mono';-inkscape-font-specification:'Ubuntu Mono';white-space:pre;shape-inside:url(#rect12146);fill:#000000;fill-opacity:1;stroke:none" />
    <text
       xml:space="preserve"
       transform="scale(0.26458333)"
       id="text20642"
       style="font-style:normal;font-variant:normal;font-weight:normal;font-stretch:normal;font-size:533.333px;line-height:0.45;font-family:'Ubuntu Mono';-inkscape-font-specification:'Ubuntu Mono';white-space:pre;shape-inside:url(#rect20644);fill:#000000;fill-opacity:1;stroke:none" />
    <text
       xml:space="preserve"
       transform="matrix(0.2794992,0,0,0.19726973,-1.3629386,11.373617)"
       id="text66278"
       style="font-style:normal;font-variant:normal;font-weight:normal;font-stretch:normal;font-size:413.333px;line-height:1.25;font-family:'Ubuntu Mono';-inkscape-font-specification:'Ubuntu Mono';white-space:pre;shape-inside:url(#rect66280);fill:#000000;fill-opacity:1;stroke:none;stroke-width:1.12679" />
    <text
       xml:space="preserve"
       transform="matrix(0.31932406,0,0,0.2237626,-10.253653,-28.457255)"
       id="text100582"
       style="font-style:normal;font-variant:normal;font-weight:normal;font-stretch:normal;font-size:400px;line-height:1.15;font-family:'Ubuntu Condensed';-inkscape-font-specification:'Ubuntu Condensed, ';white-space:pre;shape-inside:url(#rect100584);fill:#2566b7;fill-opacity:1;stroke:#2566b7;stroke-width:0.98981;stroke-opacity:1"><tspan
         x="5.8496094"
         y="418.30547"
         id="tspan105540">FOLIO</tspan></text>
    <rect
       style="display:none;fill:#ffffff;fill-opacity:1;stroke:none;stroke-width:0.264999;stroke-opacity:1;paint-order:markers stroke fill"
       id="rect26358"
       width="74.480492"
       height="67.438927"
       x="45.834297"
       y="0.65126479" />
  </g>
  <g
     inkscape:groupmode="layer"
     id="layer4"
     inkscape:label="white background"
     style="display:inline">
    <rect
       style="fill:#ffffff;fill-opacity:1;stroke:none;stroke-width:0.264999;stroke-opacity:1;paint-order:markers stroke fill"
       id="rect26586"
       width="70.185516"
       height="66.112152"
       x="50.03508"
       y="0.69043368" />
    <rect
       style="display:inline;fill:#ffffff;stroke:none;stroke-width:0.264999;stroke-opacity:1;paint-order:markers stroke fill"
       id="rect1179"
       width="73.015984"
       height="68.973099"
       x="209.72171"
       y="0.81578547"
       inkscape:export-filename="/home/hans/Documents/School/ZWA/Folio/folio-logo blue.png"
       inkscape:export-xdpi="96"
       inkscape:export-ydpi="96" />
    <path
       style="fill:none;stroke:#2566b7;stroke-width:0.264583px;stroke-linecap:butt;stroke-linejoin:miter;stroke-opacity:1"
       d="m 272.79486,55.206722 c 0.0989,-0.09374 0.18732,-0.188703 0.2622,-0.305128 0.1,-0.155408 0.16701,-0.332211 0.26861,-0.487429 0.16959,-0.259111 0.416,-0.560755 0.60637,-0.797486 0.44278,-0.550677 0.99954,-1.007446 1.40774,-1.586653 0.12975,-0.184142 0.23267,-0.378931 0.34552,-0.572749 0.0611,-0.10506 0.12128,-0.214011 0.18653,-0.316518 0.0824,-0.129426 0.0408,-0.04497 0.10388,-0.160645 0.053,-0.09706 0.0974,-0.198299 0.14808,-0.296227 0.0562,-0.10844 0.11819,-0.218334 0.18206,-0.322821 0.0443,-0.0726 0.11356,-0.153569 0.14034,-0.233902"
       id="path56130" />
    <path
       style="fill:none;stroke:#2566b7;stroke-width:0.264583px;stroke-linecap:butt;stroke-linejoin:miter;stroke-opacity:1"
       d="m 274.30312,53.393429 c -0.14235,0.126794 -0.29255,0.253294 -0.41495,0.400235 -0.06,0.07197 -0.10065,0.158176 -0.15624,0.233548 -0.0306,0.04152 -0.0674,0.0788 -0.0938,0.123132 -0.0516,0.08663 -0.10461,0.30979 -0.16409,0.374923 -0.0661,0.07246 -0.1728,0.09682 -0.23969,0.1637"
       id="path57920" />
    <path
       style="fill:none;stroke:#2566b7;stroke-width:0.264583px;stroke-linecap:butt;stroke-linejoin:miter;stroke-opacity:1"
       d="m 272.79486,55.206722 c -0.004,0.02328 0.006,0.05365 -0.0114,0.06983 -0.55594,0.524193 -0.12427,-0.04115 -0.69686,0.600305 -0.2133,0.23894 -0.39066,0.508834 -0.60838,0.743741 -0.39518,0.426377 -0.84463,0.800476 -1.2818,1.181683 -0.21625,0.188579 -0.17328,0.173352 -0.4073,0.40759 -0.19079,0.190995 -0.38727,0.367348 -0.59346,0.540047"
       id="path58774" />
    <path
       style="fill:none;stroke:#2566b7;stroke-width:0.264583px;stroke-linecap:butt;stroke-linejoin:miter;stroke-opacity:1"
       d="m 279.15843,44.189044 c -0.0657,0.23382 0.0888,-0.30733 -0.18613,0.45363 -0.0958,0.265147 -0.16912,0.538009 -0.26384,0.803535 -0.0951,0.26653 -0.33685,0.858625 -0.4584,1.166563 -0.15755,0.39918 -0.13713,0.409647 -0.39803,0.818944 -0.51891,0.814057 -0.18566,0.138991 -0.71917,1.066027 -0.15997,0.277935 -0.22106,0.593329 -0.35729,0.880044 -0.0651,0.136946 -0.16349,0.255715 -0.23575,0.389012 -0.0459,0.08473 -0.0825,0.176792 -0.12313,0.264369 -0.014,0.03037 0.0193,0.06414 0.0295,0.096"
       id="path59940" />
    <path
       style="fill:none;stroke:#2566b7;stroke-width:0.264583px;stroke-linecap:butt;stroke-linejoin:miter;stroke-opacity:1"
       d="m 277.48317,48.245246 c -0.0831,0.138142 -0.17907,0.267142 -0.28104,0.39165 -0.0511,0.06234 -0.0815,0.08857 -0.10806,0.160657 -0.018,0.04925 -0.0164,0.108024 -0.0332,0.158364"
       id="path61184" />
    <path
       style="fill:none;stroke:#2566b7;stroke-width:0.264583px;stroke-linecap:butt;stroke-linejoin:miter;stroke-opacity:1"
       d="m 279.5126,25.294717 c 0.0332,0.321576 0.009,0.65563 0.0819,0.97292 0.0769,0.333037 0.21169,0.64892 0.30972,0.975667 0.0708,0.235876 0.1211,0.48477 0.18076,0.724043 0.0957,0.383892 0.15751,0.782598 0.22262,1.172612 0.0284,0.170156 0.0364,0.34552 0.0702,0.514493 0.0686,0.343162 0.097,0.680789 0.12874,1.029928 0.0183,0.20012 0.0593,0.399023 0.0704,0.598993 0.0201,0.362317 -0.0124,0.715502 -0.0352,1.076512 -0.0254,0.403014 0.0116,0.803529 0.0116,1.206871 0,0.36544 -0.0426,0.733449 -0.0233,1.099145 0.006,0.121007 0.0296,0.241443 0.0351,0.362484 0.0138,0.303282 -0.0193,0.601404 -0.0351,0.902669 -0.0185,0.351091 0.0292,0.708189 0,1.058439 -0.007,0.08453 -0.0331,0.163557 -0.0468,0.245555 -0.0525,0.315301 0.0209,0.63337 -0.0583,0.946914"
       id="path71177" />
    <path
       style="fill:none;stroke:#2566b7;stroke-width:0.264583px;stroke-linecap:butt;stroke-linejoin:miter;stroke-opacity:1"
       d="m 280.68008,32.46293 c 0.12313,0.462989 0.13017,0.954471 0.0935,1.43083 -0.0116,0.149897 -0.0464,0.297764 -0.0584,0.447979 -0.0225,0.280485 -0.0341,0.56112 -0.0585,0.841899 -0.0106,0.121967 -0.0503,0.684183 -0.0119,0.775861"
       id="path73045" />
    <path
       style="fill:none;stroke:#2566b7;stroke-width:0.264583px;stroke-linecap:butt;stroke-linejoin:miter;stroke-opacity:1"
       d="m 279.06575,24.016214 c 0.0116,0.05168 0.0185,0.104726 0.0351,0.155035 0.0716,0.216472 0.16912,0.427755 0.24554,0.643117 0.0465,0.13102 0.0817,0.267764 0.12864,0.397563 0.15398,0.425881 0.33538,0.826742 0.37028,1.280387 0.008,0.104675 0.049,0.207727 0.049,0.312563"
       id="path74367" />
    <path
       style="fill:none;stroke:#2566b7;stroke-width:0.264583px;stroke-linecap:butt;stroke-linejoin:miter;stroke-opacity:1"
       d="m 280.68008,32.46293 -0.0353,3.496569"
       id="path76157" />
    <path
       style="fill:none;stroke:#2566b7;stroke-width:0.264583px;stroke-linecap:butt;stroke-linejoin:miter;stroke-opacity:1"
       d="m 279.59904,37.015687 1.04574,-1.056188"
       id="path77557" />
    <path
       style="fill:none;stroke:#2566b7;stroke-width:0.264583px;stroke-linecap:butt;stroke-linejoin:miter;stroke-opacity:1"
       d="m 280.42494,38.181962 -0.0382,0.610188"
       id="path80049" />
    <path
       style="fill:none;stroke:#2566b7;stroke-width:0.264583px;stroke-linecap:butt;stroke-linejoin:miter;stroke-opacity:1"
       d="m 280.64478,35.959499 v 0.235792"
       id="path81683" />
    <path
       style="fill:none;stroke:#000000;stroke-width:0.264583px;stroke-linecap:butt;stroke-linejoin:miter;stroke-opacity:1"
       d="m 280.67415,32.324074 0.006,0.138856"
       id="path83239" />
    <path
       style="fill:none;stroke:#2566b7;stroke-width:0.264583px;stroke-linecap:butt;stroke-linejoin:miter;stroke-opacity:1"
       d="m 280.67415,32.324074 -1.1212,0.234426"
       id="path83241" />
    <path
       style="fill:none;stroke:#2566b7;stroke-width:0.264583px;stroke-linecap:butt;stroke-linejoin:miter;stroke-opacity:1"
       d="m 221.08397,17.418937 -1.02044,1.816179 0.74121,-1.397874 z"
       id="path85625" />
    <path
       style="fill:none;stroke:#2566b7;stroke-width:0.264583px;stroke-linecap:butt;stroke-linejoin:miter;stroke-opacity:1"
       d="m 223.96175,13.422356 -2.44747,3.428642 -0.43031,0.567939 2.47485,-0.520323 z"
       id="path86401" />
    <path
       style="fill:none;stroke:#2566b7;stroke-width:0.264583px;stroke-linecap:butt;stroke-linejoin:miter;stroke-opacity:1"
       d="m 223.96175,13.422356 0.98133,-1.133335 3.25657,-3.075718 z"
       id="path88503" />
    <path
       style="fill:none;stroke:#2566b7;stroke-width:0.264583px;stroke-linecap:butt;stroke-linejoin:miter;stroke-opacity:1"
       d="m 228.19965,9.213303 3.73701,-2.6405797 1.33798,-0.7478112 z"
       id="path89357" />
    <path
       style="fill:none;stroke:#2566b7;stroke-width:0.264583px;stroke-linecap:butt;stroke-linejoin:miter;stroke-opacity:1"
       d="m 239.27977,3.2996542 c 0,0 -1.92745,0.6818357 -1.97715,0.7022983 -0.0497,0.020463 -2.24059,0.9666256 -2.28083,0.9839693 -0.0402,0.017343 -1.74715,0.8389903 -1.74715,0.8389903 z"
       id="path90289" />
    <path
       style="fill:none;stroke:#2566b7;stroke-width:0.264583px;stroke-linecap:butt;stroke-linejoin:miter;stroke-opacity:1"
       d="m 245.57674,2.0410003 6.5801,0.089144 2.88319,0.4801881 z"
       id="path90962" />
    <path
       style="fill:none;stroke:#2566b7;stroke-width:0.264583px;stroke-linecap:butt;stroke-linejoin:miter;stroke-opacity:1"
       d="M 249.67739,3.5347441 250.01095,1.972804 247.9209,1.9379964 Z"
       id="path91695" />
    <path
       style="fill:none;stroke:#2566b7;stroke-width:0.264583px;stroke-linecap:butt;stroke-linejoin:miter;stroke-opacity:1"
       d="m 255.04003,2.6103324 0.18119,0.026561 z"
       id="path92393" />
    <path
       style="fill:none;stroke:#2566b7;stroke-width:0.264583px;stroke-linecap:butt;stroke-linejoin:miter;stroke-opacity:1"
       d="m 267.03342,7.8084028 1.20349,0.8244049 1.20697,0.9950569 1.06014,0.9658324 1.07701,1.049386 1.1325,1.219039 0.58959,0.673206 0.26387,0.436147 -6.44877,-6.105252 6.3463,6.05002 z"
       id="path93091" />
    <path
       style="fill:none;stroke:#2566b7;stroke-width:0.264583px;stroke-linecap:butt;stroke-linejoin:miter;stroke-opacity:1"
       d="m 279.43976,43.125355 -0.28133,1.063689 z"
       id="path94569" />
    <path
       style="fill:none;stroke:#2566b7;stroke-width:0.264583px;stroke-linecap:butt;stroke-linejoin:miter;stroke-opacity:1"
       d="m 262.98085,62.783902 c 0,0 -0.83458,0.489347 -1.11911,0.592637 -0.28453,0.103288 -1.13813,0.512546 -1.29013,0.582703 -0.15201,0.07016 -1.3111,0.456583 -1.56835,0.538435 -0.25725,0.08185 -1.42809,0.504407 -1.70872,0.562872 -0.28063,0.05847 -1.19877,0.278648 -1.37416,0.325419 -0.1754,0.04677 -1.82594,0.372853 -2.0598,0.396237 -0.23386,0.02339 -1.99808,0.30561 -1.99808,0.30561 l -0.45301,0.01169 z"
       id="path96047" />
    <path
       style="fill:none;stroke:#2566b7;stroke-width:0.264583px;stroke-linecap:butt;stroke-linejoin:miter;stroke-opacity:1"
       d="m 236.79304,63.979054 -4.58222,-2.250588 -4.718,-3.454406 -3.90469,-3.921021 -2.5306,-3.609967 -2.1607,-4.472856 -2.17342,-7.875823 -0.11839,-7.729865 z"
       id="path97291" />
    <path
       style="fill:none;stroke:#2566b7;stroke-width:0.264583px;stroke-linecap:butt;stroke-linejoin:miter;stroke-opacity:1"
       d="m 231.65123,61.384108 -3.37374,-2.365838 -3.27826,-3.096781 z"
       id="path98223" />
    <path
       style="fill:none;stroke:#2566b7;stroke-width:0.264583px;stroke-linecap:butt;stroke-linejoin:miter;stroke-opacity:1"
       d="m 216.91833,39.399995 1.74692,6.381213 -1.73192,-6.293789 z"
       id="path99545" />
    <path
       style="fill:none;stroke:#2566b7;stroke-width:0.264583px;stroke-linecap:butt;stroke-linejoin:miter;stroke-opacity:1"
       d="m 217.10129,40.313374 1.06804,4.167759 z"
       id="path100867" />
    <path
       style="fill:none;stroke:#2566b7;stroke-width:0.264583px;stroke-linecap:butt;stroke-linejoin:miter;stroke-opacity:1"
       d="m 216.48821,31.862945 0.0732,5.216332 z"
       id="path102345" />
    <path
       style="fill:none;stroke:#2566b7;stroke-width:0.264583px;stroke-linecap:butt;stroke-linejoin:miter;stroke-opacity:1"
       d="m 216.743,37.766217 -0.18159,-0.68694 z"
       id="path104057" />
  </g>
  <g
     inkscape:groupmode="layer"
     id="layer2"
     inkscape:label="logo"
     style="display:inline">
    <g
       id="g26757">
      <g
         id="g25851"
         transform="matrix(0.98281969,0,0,0.98281969,-18.120982,-78.065961)"
         style="stroke-width:1.01748">
        <g
           id="g25878"
           transform="translate(-100.14738,-16.859549)"
           style="stroke-width:1.01748">
          <path
             style="fill:#f4c400;fill-opacity:1;stroke:none;stroke-width:0.269631;stroke-miterlimit:4;stroke-dasharray:none;paint-order:markers stroke fill"
             d="m 228.00314,131.13392 a 24.274456,23.911903 0 0 1 -24.23832,23.10091 24.274456,23.911903 0 0 1 -17.91467,-7.81037 l -6.74532,5.66012 a 32.909785,32.909999 0 0 0 24.66103,11.14867 32.909785,32.909999 0 0 0 32.89824,-32.09933 z"
             id="path21688" />
          <path
             style="fill:#2566b7;fill-opacity:1;stroke:none;stroke-width:0.269631;stroke-miterlimit:4;stroke-dasharray:none;paint-order:markers stroke fill"
             d="m 202.95402,97.443477 a 32.909785,32.909999 0 0 0 -32.0983,32.879643 32.909785,32.909999 0 0 0 7.19078,20.53208 l 6.73912,-5.65495 a 24.274456,23.911903 0 0 1 -5.29529,-14.87713 24.274456,23.911903 0 0 1 23.46369,-23.8771 z"
             id="path21686" />
          <path
             style="fill:#3db8b7;fill-opacity:1;stroke:none;stroke-width:0.269631;stroke-miterlimit:4;stroke-dasharray:none;paint-order:markers stroke fill"
             d="m 204.57614,97.423277 v 9.022693 a 24.274456,23.911903 0 0 1 23.427,23.06578 h 8.66096 A 32.909785,32.909999 0 0 0 204.57614,97.423277 Z"
             id="path146968" />
        </g>
      </g>
    </g>
    <g
       id="g1155"
       transform="rotate(33.345129,303.21707,305.287)"
       style="stroke:#2566b7;stroke-opacity:1;fill:none;fill-opacity:1">
      <ellipse
         style="fill:none;stroke:#2566b7;stroke-width:0.264999;stroke-opacity:1;paint-order:markers stroke fill;fill-opacity:1"
         id="path49"
         cx="108.49551"
         cy="108.76842"
         rx="32.289352"
         ry="32.281734" />
      <ellipse
         style="fill:none;stroke:#2566b7;stroke-width:0.264999;stroke-opacity:1;paint-order:markers stroke fill;fill-opacity:1"
         id="path211"
         cx="108.49551"
         cy="108.76842"
         rx="23.696312"
         ry="23.507982" />
    </g>
    <path
       style="fill:#2566b7;fill-opacity:1;stroke:#2566b7;stroke-width:1.00157;stroke-opacity:1;paint-order:markers stroke fill"
       d="m 930.09048,249.53633 c -42.68711,-3.28741 -80.97359,-29.49244 -99.64461,-68.20136 -12.37292,-25.65162 -15.27605,-55.63868 -8.07116,-83.368777 8.39363,-32.305304 31.42764,-61.071968 61.09953,-76.305813 19.89619,-10.214907 38.7335,-14.4819558 60.42567,-13.6876901 31.05025,1.1369149 58.92999,13.2626191 81.07739,35.2629081 24.7207,24.556383 37.13,57.423232 35.2223,93.287832 -0.8777,16.50005 -5.1292,31.90566 -13.0603,47.32433 -19.6766,38.25295 -56.19842,62.39915 -99.47098,65.7647 -4.74678,0.36919 -8.94872,0.63363 -9.33763,0.58764 -0.3889,-0.046 -4.097,-0.34469 -8.24021,-0.66377 z m 25.29493,-32.13329 c 33.19364,-5.7771 59.97519,-29.12849 70.11229,-61.13244 3.0601,-9.66109 3.9766,-16.00143 3.9351,-27.22361 -0.1117,-30.206523 -14.9051,-57.847049 -39.91271,-74.574365 -15.95486,-10.67203 -30.90842,-15.169884 -50.48229,-15.184473 -12.4749,-0.0093 -18.60998,0.950139 -29.69848,4.644403 -30.1418,10.04209 -53.12647,37.061499 -58.696,68.999505 -1.36287,7.81532 -1.34885,22.35601 0.0293,30.34122 5.32782,30.8709 25.58577,56.23551 54.73068,68.52728 5.12641,2.16205 17.34934,5.56142 22.32083,6.20775 5.78158,0.75165 21.89008,0.39917 27.66132,-0.60527 z"
       id="path44258"
       transform="scale(0.26458333)" />
    <path
       style="fill:#2566b7;fill-opacity:1;stroke:#2566b7;stroke-width:1.00157;stroke-opacity:1;paint-order:markers stroke fill"
       d=""
       id="path44482"
       transform="scale(0.26458333)" />
    <path
       style="fill:#2566b7;fill-opacity:1;stroke:#2566b7;stroke-width:1.00157;stroke-opacity:1;paint-order:markers stroke fill"
       d=""
       id="path44521"
       transform="scale(0.26458333)" />
  </g>
</svg>
